<svg xmlns="http://www.w3.org/2000/svg" width="269" height="270" viewBox="0 0 269 270" shape-rendering="crispEdges">
<rect x="0" y="0" width="269" height="43" fill="#AF5FAF"/>
<rect x="0" y="43" width="30" height="138" fill="#AF5FAF"/>
<rect x="30" y="43" width="47" height="46" fill="#000000"/>
<rect x="77" y="43" width="115" height="46" fill="#AF5FAF"/>
<rect x="192" y="43" width="46" height="46" fill="#000000"/>
<rect x="238" y="43" width="31" height="138" fill="#AF5FAF"/>
<rect x="30" y="89" width="208" height="46" fill="#000000"/>
<rect x="30" y="135" width="47" height="46" fill="#000000"/>
<rect x="77" y="135" width="23" height="46" fill="#FFD700"/>
<rect x="100" y="135" width="69" height="46" fill="#000000"/>
<rect x="169" y="135" width="23" height="46" fill="#FFD700"/>
<rect x="192" y="135" width="46" height="46" fill="#000000"/>
<rect x="0" y="181" width="53" height="46" fill="#AF5FAF"/>
<rect x="53" y="181" width="70" height="46" fill="#000000"/>
<rect x="123" y="181" width="23" height="46" fill="#FF87AF"/>
<rect x="146" y="181" width="69" height="46" fill="#000000"/>
<rect x="215" y="181" width="54" height="46" fill="#AF5FAF"/>
<rect x="0" y="227" width="269" height="43" fill="#AF5FAF"/>
</svg>